<mxfile host="www.draw.io" modified="2020-01-05T06:53:41.129Z" agent="Mozilla/5.0 (X11; Linux x86_64) AppleWebKit/537.36 (KHTML, like Gecko) Chrome/74.0.3729.108 Safari/537.36" etag="tSw3GLjRi7k21DruV52v" version="12.4.8" type="github" pages="5">
  <diagram id="nn15Pzo3kWSjALqgYEk7" name="algoritma genetika">
    <mxGraphModel dx="813" dy="498" grid="1" gridSize="10" guides="1" tooltips="1" connect="1" arrows="1" fold="1" page="1" pageScale="1" pageWidth="850" pageHeight="1100" math="0" shadow="0">
      <root>
        <mxCell id="eHlzb9APgk9kwV1umbWw-0"/>
        <mxCell id="eHlzb9APgk9kwV1umbWw-1" parent="eHlzb9APgk9kwV1umbWw-0"/>
        <mxCell id="6nPR126G3Xk7baoDY5jP-0" value="" style="group" parent="eHlzb9APgk9kwV1umbWw-1" vertex="1" connectable="0">
          <mxGeometry x="210" y="80" width="430" height="400" as="geometry"/>
        </mxCell>
        <mxCell id="WR7_qulLSGG9NWkR1sSl-0" value="Start" style="rounded=1;whiteSpace=wrap;html=1;" parent="6nPR126G3Xk7baoDY5jP-0" vertex="1">
          <mxGeometry x="250" width="80" height="40" as="geometry"/>
        </mxCell>
        <mxCell id="WR7_qulLSGG9NWkR1sSl-2" value="" style="endArrow=classic;html=1;exitX=0.5;exitY=1;exitDx=0;exitDy=0;" parent="6nPR126G3Xk7baoDY5jP-0" source="WR7_qulLSGG9NWkR1sSl-0" edge="1">
          <mxGeometry width="50" height="50" relative="1" as="geometry">
            <mxPoint x="240" y="220" as="sourcePoint"/>
            <mxPoint x="290" y="70" as="targetPoint"/>
          </mxGeometry>
        </mxCell>
        <mxCell id="WR7_qulLSGG9NWkR1sSl-5" value="Inisialisasi" style="shape=parallelogram;perimeter=parallelogramPerimeter;whiteSpace=wrap;html=1;" parent="6nPR126G3Xk7baoDY5jP-0" vertex="1">
          <mxGeometry x="240" y="70" width="100" height="50" as="geometry"/>
        </mxCell>
        <mxCell id="WR7_qulLSGG9NWkR1sSl-6" value="i &amp;lt; generasi" style="rhombus;whiteSpace=wrap;html=1;" parent="6nPR126G3Xk7baoDY5jP-0" vertex="1">
          <mxGeometry x="250" y="170" width="80" height="80" as="geometry"/>
        </mxCell>
        <mxCell id="WR7_qulLSGG9NWkR1sSl-7" value="" style="endArrow=classic;html=1;" parent="6nPR126G3Xk7baoDY5jP-0" edge="1">
          <mxGeometry width="50" height="50" relative="1" as="geometry">
            <mxPoint x="390" y="210" as="sourcePoint"/>
            <mxPoint x="390" y="300" as="targetPoint"/>
          </mxGeometry>
        </mxCell>
        <mxCell id="WR7_qulLSGG9NWkR1sSl-8" value="" style="endArrow=none;html=1;exitX=1;exitY=0.5;exitDx=0;exitDy=0;" parent="6nPR126G3Xk7baoDY5jP-0" source="WR7_qulLSGG9NWkR1sSl-6" edge="1">
          <mxGeometry width="50" height="50" relative="1" as="geometry">
            <mxPoint x="240" y="380" as="sourcePoint"/>
            <mxPoint x="390" y="210" as="targetPoint"/>
          </mxGeometry>
        </mxCell>
        <mxCell id="WR7_qulLSGG9NWkR1sSl-13" value="End" style="rounded=1;whiteSpace=wrap;html=1;" parent="6nPR126G3Xk7baoDY5jP-0" vertex="1">
          <mxGeometry x="350" y="300" width="80" height="40" as="geometry"/>
        </mxCell>
        <mxCell id="WR7_qulLSGG9NWkR1sSl-15" value="" style="endArrow=classic;html=1;exitX=0.5;exitY=1;exitDx=0;exitDy=0;" parent="6nPR126G3Xk7baoDY5jP-0" source="WR7_qulLSGG9NWkR1sSl-5" edge="1">
          <mxGeometry width="50" height="50" relative="1" as="geometry">
            <mxPoint x="290" y="120" as="sourcePoint"/>
            <mxPoint x="290" y="170" as="targetPoint"/>
          </mxGeometry>
        </mxCell>
        <mxCell id="WR7_qulLSGG9NWkR1sSl-17" value="" style="endArrow=none;html=1;entryX=0;entryY=0.5;entryDx=0;entryDy=0;" parent="6nPR126G3Xk7baoDY5jP-0" target="WR7_qulLSGG9NWkR1sSl-6" edge="1">
          <mxGeometry width="50" height="50" relative="1" as="geometry">
            <mxPoint x="40" y="210" as="sourcePoint"/>
            <mxPoint x="50" y="360" as="targetPoint"/>
          </mxGeometry>
        </mxCell>
        <mxCell id="WR7_qulLSGG9NWkR1sSl-18" value="" style="endArrow=classic;html=1;entryX=0.5;entryY=0;entryDx=0;entryDy=0;" parent="6nPR126G3Xk7baoDY5jP-0" edge="1">
          <mxGeometry width="50" height="50" relative="1" as="geometry">
            <mxPoint x="40" y="210" as="sourcePoint"/>
            <mxPoint x="40" y="270" as="targetPoint"/>
          </mxGeometry>
        </mxCell>
        <mxCell id="WR7_qulLSGG9NWkR1sSl-19" value="Mutasi" style="rounded=0;whiteSpace=wrap;html=1;" parent="6nPR126G3Xk7baoDY5jP-0" vertex="1">
          <mxGeometry y="360" width="80" height="40" as="geometry"/>
        </mxCell>
        <mxCell id="WR7_qulLSGG9NWkR1sSl-21" value="" style="endArrow=classic;html=1;exitX=0.5;exitY=1;exitDx=0;exitDy=0;entryX=0.5;entryY=0;entryDx=0;entryDy=0;" parent="6nPR126G3Xk7baoDY5jP-0" target="WR7_qulLSGG9NWkR1sSl-19" edge="1">
          <mxGeometry width="50" height="50" relative="1" as="geometry">
            <mxPoint x="40" y="310" as="sourcePoint"/>
            <mxPoint x="50" y="510" as="targetPoint"/>
          </mxGeometry>
        </mxCell>
        <mxCell id="WR7_qulLSGG9NWkR1sSl-22" value="" style="endArrow=classic;html=1;entryX=0;entryY=0.5;entryDx=0;entryDy=0;" parent="6nPR126G3Xk7baoDY5jP-0" target="WR7_qulLSGG9NWkR1sSl-31" edge="1">
          <mxGeometry width="50" height="50" relative="1" as="geometry">
            <mxPoint x="110" y="320" as="sourcePoint"/>
            <mxPoint x="50" y="370" as="targetPoint"/>
          </mxGeometry>
        </mxCell>
        <mxCell id="WR7_qulLSGG9NWkR1sSl-28" value="Crossover" style="shape=process;whiteSpace=wrap;html=1;backgroundOutline=1;" parent="6nPR126G3Xk7baoDY5jP-0" vertex="1">
          <mxGeometry y="270" width="80" height="40" as="geometry"/>
        </mxCell>
        <mxCell id="WR7_qulLSGG9NWkR1sSl-30" value="Mutasi" style="shape=process;whiteSpace=wrap;html=1;backgroundOutline=1;" parent="6nPR126G3Xk7baoDY5jP-0" vertex="1">
          <mxGeometry y="360" width="80" height="40" as="geometry"/>
        </mxCell>
        <mxCell id="WR7_qulLSGG9NWkR1sSl-31" value="Evaluasi" style="shape=process;whiteSpace=wrap;html=1;backgroundOutline=1;" parent="6nPR126G3Xk7baoDY5jP-0" vertex="1">
          <mxGeometry x="150" y="300" width="80" height="40" as="geometry"/>
        </mxCell>
        <mxCell id="WR7_qulLSGG9NWkR1sSl-32" value="" style="endArrow=none;html=1;entryX=1;entryY=0.5;entryDx=0;entryDy=0;" parent="6nPR126G3Xk7baoDY5jP-0" target="WR7_qulLSGG9NWkR1sSl-30" edge="1">
          <mxGeometry width="50" height="50" relative="1" as="geometry">
            <mxPoint x="110" y="380" as="sourcePoint"/>
            <mxPoint x="50" y="420" as="targetPoint"/>
          </mxGeometry>
        </mxCell>
        <mxCell id="WR7_qulLSGG9NWkR1sSl-33" value="" style="endArrow=none;html=1;" parent="6nPR126G3Xk7baoDY5jP-0" edge="1">
          <mxGeometry width="50" height="50" relative="1" as="geometry">
            <mxPoint x="110" y="320" as="sourcePoint"/>
            <mxPoint x="110" y="380" as="targetPoint"/>
          </mxGeometry>
        </mxCell>
        <mxCell id="WR7_qulLSGG9NWkR1sSl-34" value="" style="endArrow=classic;html=1;entryX=0.5;entryY=1;entryDx=0;entryDy=0;" parent="6nPR126G3Xk7baoDY5jP-0" target="WR7_qulLSGG9NWkR1sSl-6" edge="1">
          <mxGeometry width="50" height="50" relative="1" as="geometry">
            <mxPoint x="290" y="300" as="sourcePoint"/>
            <mxPoint x="310" y="430" as="targetPoint"/>
          </mxGeometry>
        </mxCell>
        <mxCell id="WR7_qulLSGG9NWkR1sSl-35" value="" style="endArrow=none;html=1;entryX=1;entryY=0.5;entryDx=0;entryDy=0;" parent="6nPR126G3Xk7baoDY5jP-0" edge="1">
          <mxGeometry width="50" height="50" relative="1" as="geometry">
            <mxPoint x="260" y="319.5" as="sourcePoint"/>
            <mxPoint x="230" y="319.5" as="targetPoint"/>
          </mxGeometry>
        </mxCell>
        <mxCell id="WR7_qulLSGG9NWkR1sSl-36" value="" style="endArrow=none;html=1;" parent="6nPR126G3Xk7baoDY5jP-0" edge="1">
          <mxGeometry width="50" height="50" relative="1" as="geometry">
            <mxPoint x="260" y="300" as="sourcePoint"/>
            <mxPoint x="260" y="320" as="targetPoint"/>
          </mxGeometry>
        </mxCell>
        <mxCell id="WR7_qulLSGG9NWkR1sSl-37" value="" style="endArrow=none;html=1;" parent="6nPR126G3Xk7baoDY5jP-0" edge="1">
          <mxGeometry width="50" height="50" relative="1" as="geometry">
            <mxPoint x="290" y="300" as="sourcePoint"/>
            <mxPoint x="260" y="300" as="targetPoint"/>
          </mxGeometry>
        </mxCell>
      </root>
    </mxGraphModel>
  </diagram>
  <diagram id="NvmQUkh1X5HVNJzbBHli" name="evaluasi">
    <mxGraphModel dx="813" dy="498" grid="1" gridSize="10" guides="1" tooltips="1" connect="1" arrows="1" fold="1" page="1" pageScale="1" pageWidth="850" pageHeight="1100" math="0" shadow="0">
      <root>
        <mxCell id="OvM_onyhNAfKR_YiBide-0"/>
        <mxCell id="OvM_onyhNAfKR_YiBide-1" parent="OvM_onyhNAfKR_YiBide-0"/>
        <mxCell id="qoKLYL60NTBra32I-bc4-0" value="Start" style="rounded=1;whiteSpace=wrap;html=1;" parent="OvM_onyhNAfKR_YiBide-1" vertex="1">
          <mxGeometry x="365" y="83" width="100" height="40" as="geometry"/>
        </mxCell>
        <mxCell id="qoKLYL60NTBra32I-bc4-1" value="Decode" style="rounded=0;whiteSpace=wrap;html=1;" parent="OvM_onyhNAfKR_YiBide-1" vertex="1">
          <mxGeometry x="365" y="151" width="100" height="40" as="geometry"/>
        </mxCell>
        <mxCell id="qoKLYL60NTBra32I-bc4-12" value="" style="edgeStyle=orthogonalEdgeStyle;rounded=0;orthogonalLoop=1;jettySize=auto;html=1;exitX=0.5;exitY=1;exitDx=0;exitDy=0;" parent="OvM_onyhNAfKR_YiBide-1" source="qoKLYL60NTBra32I-bc4-0" edge="1">
          <mxGeometry relative="1" as="geometry">
            <mxPoint x="415" y="150" as="targetPoint"/>
          </mxGeometry>
        </mxCell>
        <mxCell id="qoKLYL60NTBra32I-bc4-3" value="Evaluate" style="rounded=0;whiteSpace=wrap;html=1;" parent="OvM_onyhNAfKR_YiBide-1" vertex="1">
          <mxGeometry x="365" y="220" width="100" height="40" as="geometry"/>
        </mxCell>
        <mxCell id="qoKLYL60NTBra32I-bc4-6" value="Normalisasi" style="rounded=0;whiteSpace=wrap;html=1;" parent="OvM_onyhNAfKR_YiBide-1" vertex="1">
          <mxGeometry x="365" y="280" width="100" height="40" as="geometry"/>
        </mxCell>
        <mxCell id="qoKLYL60NTBra32I-bc4-9" value="Cari Nilai&lt;br&gt;Minimum" style="rounded=0;whiteSpace=wrap;html=1;" parent="OvM_onyhNAfKR_YiBide-1" vertex="1">
          <mxGeometry x="365" y="350" width="100" height="40" as="geometry"/>
        </mxCell>
        <mxCell id="qoKLYL60NTBra32I-bc4-10" value="end" style="rounded=1;whiteSpace=wrap;html=1;" parent="OvM_onyhNAfKR_YiBide-1" vertex="1">
          <mxGeometry x="365" y="410" width="100" height="40" as="geometry"/>
        </mxCell>
        <mxCell id="qoKLYL60NTBra32I-bc4-13" value="" style="edgeStyle=orthogonalEdgeStyle;rounded=0;orthogonalLoop=1;jettySize=auto;html=1;exitX=0.5;exitY=1;exitDx=0;exitDy=0;" parent="OvM_onyhNAfKR_YiBide-1" source="qoKLYL60NTBra32I-bc4-1" target="qoKLYL60NTBra32I-bc4-3" edge="1">
          <mxGeometry relative="1" as="geometry">
            <mxPoint x="520" y="240" as="sourcePoint"/>
            <mxPoint x="425" y="160" as="targetPoint"/>
          </mxGeometry>
        </mxCell>
        <mxCell id="qoKLYL60NTBra32I-bc4-17" value="" style="endArrow=classic;html=1;exitX=0.5;exitY=1;exitDx=0;exitDy=0;" parent="OvM_onyhNAfKR_YiBide-1" source="qoKLYL60NTBra32I-bc4-3" target="qoKLYL60NTBra32I-bc4-6" edge="1">
          <mxGeometry width="50" height="50" relative="1" as="geometry">
            <mxPoint x="370" y="520" as="sourcePoint"/>
            <mxPoint x="420" y="470" as="targetPoint"/>
          </mxGeometry>
        </mxCell>
        <mxCell id="qoKLYL60NTBra32I-bc4-18" value="" style="endArrow=classic;html=1;exitX=0.5;exitY=1;exitDx=0;exitDy=0;" parent="OvM_onyhNAfKR_YiBide-1" source="qoKLYL60NTBra32I-bc4-6" target="qoKLYL60NTBra32I-bc4-9" edge="1">
          <mxGeometry width="50" height="50" relative="1" as="geometry">
            <mxPoint x="425" y="270" as="sourcePoint"/>
            <mxPoint x="425" y="290" as="targetPoint"/>
          </mxGeometry>
        </mxCell>
        <mxCell id="qoKLYL60NTBra32I-bc4-19" value="" style="endArrow=classic;html=1;exitX=0.5;exitY=1;exitDx=0;exitDy=0;entryX=0.5;entryY=0;entryDx=0;entryDy=0;" parent="OvM_onyhNAfKR_YiBide-1" source="qoKLYL60NTBra32I-bc4-9" target="qoKLYL60NTBra32I-bc4-10" edge="1">
          <mxGeometry width="50" height="50" relative="1" as="geometry">
            <mxPoint x="425" y="330" as="sourcePoint"/>
            <mxPoint x="425" y="360" as="targetPoint"/>
          </mxGeometry>
        </mxCell>
      </root>
    </mxGraphModel>
  </diagram>
  <diagram id="eEFJnonivfv9bAQdB0tw" name="Crossover">
    <mxGraphModel dx="813" dy="498" grid="1" gridSize="10" guides="1" tooltips="1" connect="1" arrows="1" fold="1" page="1" pageScale="1" pageWidth="850" pageHeight="1100" math="0" shadow="0">
      <root>
        <mxCell id="--VodzXXDOYi5LBe_Lhu-0"/>
        <mxCell id="--VodzXXDOYi5LBe_Lhu-1" parent="--VodzXXDOYi5LBe_Lhu-0"/>
        <mxCell id="k047J1Pyu234OKOqnGbk-0" value="Start" style="rounded=1;whiteSpace=wrap;html=1;" vertex="1" parent="--VodzXXDOYi5LBe_Lhu-1">
          <mxGeometry x="220" y="40" width="90" height="40" as="geometry"/>
        </mxCell>
        <mxCell id="k047J1Pyu234OKOqnGbk-1" value="End" style="rounded=1;whiteSpace=wrap;html=1;" vertex="1" parent="--VodzXXDOYi5LBe_Lhu-1">
          <mxGeometry x="220" y="350" width="90" height="40" as="geometry"/>
        </mxCell>
        <mxCell id="k047J1Pyu234OKOqnGbk-2" value="" style="endArrow=classic;html=1;exitX=0.5;exitY=1;exitDx=0;exitDy=0;" edge="1" parent="--VodzXXDOYi5LBe_Lhu-1" source="k047J1Pyu234OKOqnGbk-0">
          <mxGeometry width="50" height="50" relative="1" as="geometry">
            <mxPoint x="220" y="470" as="sourcePoint"/>
            <mxPoint x="265" y="110" as="targetPoint"/>
          </mxGeometry>
        </mxCell>
        <mxCell id="k047J1Pyu234OKOqnGbk-4" value="Pemilihan&lt;br&gt;Parent" style="rounded=0;whiteSpace=wrap;html=1;" vertex="1" parent="--VodzXXDOYi5LBe_Lhu-1">
          <mxGeometry x="215.75" y="110" width="98.5" height="40" as="geometry"/>
        </mxCell>
        <mxCell id="k047J1Pyu234OKOqnGbk-7" value="Pemilihan&amp;nbsp;&lt;br&gt;Pasangan" style="rounded=0;whiteSpace=wrap;html=1;align=center;" vertex="1" parent="--VodzXXDOYi5LBe_Lhu-1">
          <mxGeometry x="215.75" y="190" width="98.5" height="40" as="geometry"/>
        </mxCell>
        <mxCell id="k047J1Pyu234OKOqnGbk-8" value="" style="endArrow=classic;html=1;exitX=0.5;exitY=1;exitDx=0;exitDy=0;entryX=0.5;entryY=0;entryDx=0;entryDy=0;" edge="1" parent="--VodzXXDOYi5LBe_Lhu-1" source="k047J1Pyu234OKOqnGbk-4" target="k047J1Pyu234OKOqnGbk-7">
          <mxGeometry width="50" height="50" relative="1" as="geometry">
            <mxPoint x="275" y="130" as="sourcePoint"/>
            <mxPoint x="275" y="160" as="targetPoint"/>
          </mxGeometry>
        </mxCell>
        <mxCell id="k047J1Pyu234OKOqnGbk-9" value="Multi-point&lt;br&gt;Crossover" style="rounded=0;whiteSpace=wrap;html=1;align=center;" vertex="1" parent="--VodzXXDOYi5LBe_Lhu-1">
          <mxGeometry x="215.75" y="270" width="98.5" height="40" as="geometry"/>
        </mxCell>
        <mxCell id="k047J1Pyu234OKOqnGbk-10" value="" style="endArrow=classic;html=1;exitX=0.5;exitY=1;exitDx=0;exitDy=0;entryX=0.5;entryY=0;entryDx=0;entryDy=0;" edge="1" parent="--VodzXXDOYi5LBe_Lhu-1" source="k047J1Pyu234OKOqnGbk-7" target="k047J1Pyu234OKOqnGbk-9">
          <mxGeometry width="50" height="50" relative="1" as="geometry">
            <mxPoint x="275" y="160" as="sourcePoint"/>
            <mxPoint x="275" y="200" as="targetPoint"/>
          </mxGeometry>
        </mxCell>
        <mxCell id="k047J1Pyu234OKOqnGbk-11" value="" style="endArrow=classic;html=1;exitX=0.5;exitY=1;exitDx=0;exitDy=0;entryX=0.5;entryY=0;entryDx=0;entryDy=0;" edge="1" parent="--VodzXXDOYi5LBe_Lhu-1" source="k047J1Pyu234OKOqnGbk-9" target="k047J1Pyu234OKOqnGbk-1">
          <mxGeometry width="50" height="50" relative="1" as="geometry">
            <mxPoint x="275" y="240" as="sourcePoint"/>
            <mxPoint x="275" y="280" as="targetPoint"/>
          </mxGeometry>
        </mxCell>
      </root>
    </mxGraphModel>
  </diagram>
  <diagram id="kSlz2biip8x9Leg1f-BQ" name="Mutasi">
    <mxGraphModel dx="813" dy="498" grid="1" gridSize="10" guides="1" tooltips="1" connect="1" arrows="1" fold="1" page="1" pageScale="1" pageWidth="850" pageHeight="1100" math="0" shadow="0">
      <root>
        <mxCell id="fTwIhWSCVyCY8DVJ5tsg-0"/>
        <mxCell id="fTwIhWSCVyCY8DVJ5tsg-1" parent="fTwIhWSCVyCY8DVJ5tsg-0"/>
        <mxCell id="DCNkcFkhEtUqn7oyglFI-0" value="Start" style="rounded=1;whiteSpace=wrap;html=1;" vertex="1" parent="fTwIhWSCVyCY8DVJ5tsg-1">
          <mxGeometry x="220" y="40" width="90" height="40" as="geometry"/>
        </mxCell>
        <mxCell id="DCNkcFkhEtUqn7oyglFI-1" value="End" style="rounded=1;whiteSpace=wrap;html=1;" vertex="1" parent="fTwIhWSCVyCY8DVJ5tsg-1">
          <mxGeometry x="220" y="350" width="90" height="40" as="geometry"/>
        </mxCell>
        <mxCell id="DCNkcFkhEtUqn7oyglFI-2" value="" style="endArrow=classic;html=1;exitX=0.5;exitY=1;exitDx=0;exitDy=0;" edge="1" parent="fTwIhWSCVyCY8DVJ5tsg-1" source="DCNkcFkhEtUqn7oyglFI-0">
          <mxGeometry width="50" height="50" relative="1" as="geometry">
            <mxPoint x="220" y="470" as="sourcePoint"/>
            <mxPoint x="265" y="110" as="targetPoint"/>
          </mxGeometry>
        </mxCell>
        <mxCell id="DCNkcFkhEtUqn7oyglFI-3" value="Pemilihan&lt;br&gt;Parent" style="rounded=0;whiteSpace=wrap;html=1;" vertex="1" parent="fTwIhWSCVyCY8DVJ5tsg-1">
          <mxGeometry x="215.75" y="110" width="98.5" height="40" as="geometry"/>
        </mxCell>
        <mxCell id="DCNkcFkhEtUqn7oyglFI-4" value="Pemilihan stage" style="rounded=0;whiteSpace=wrap;html=1;align=center;" vertex="1" parent="fTwIhWSCVyCY8DVJ5tsg-1">
          <mxGeometry x="215.75" y="190" width="98.5" height="40" as="geometry"/>
        </mxCell>
        <mxCell id="DCNkcFkhEtUqn7oyglFI-5" value="" style="endArrow=classic;html=1;exitX=0.5;exitY=1;exitDx=0;exitDy=0;entryX=0.5;entryY=0;entryDx=0;entryDy=0;" edge="1" parent="fTwIhWSCVyCY8DVJ5tsg-1" source="DCNkcFkhEtUqn7oyglFI-3" target="DCNkcFkhEtUqn7oyglFI-4">
          <mxGeometry width="50" height="50" relative="1" as="geometry">
            <mxPoint x="275" y="130" as="sourcePoint"/>
            <mxPoint x="275" y="160" as="targetPoint"/>
          </mxGeometry>
        </mxCell>
        <mxCell id="DCNkcFkhEtUqn7oyglFI-6" value="Mutation" style="rounded=0;whiteSpace=wrap;html=1;align=center;" vertex="1" parent="fTwIhWSCVyCY8DVJ5tsg-1">
          <mxGeometry x="215.75" y="270" width="98.5" height="40" as="geometry"/>
        </mxCell>
        <mxCell id="DCNkcFkhEtUqn7oyglFI-7" value="" style="endArrow=classic;html=1;exitX=0.5;exitY=1;exitDx=0;exitDy=0;entryX=0.5;entryY=0;entryDx=0;entryDy=0;" edge="1" parent="fTwIhWSCVyCY8DVJ5tsg-1" source="DCNkcFkhEtUqn7oyglFI-4" target="DCNkcFkhEtUqn7oyglFI-6">
          <mxGeometry width="50" height="50" relative="1" as="geometry">
            <mxPoint x="275" y="160" as="sourcePoint"/>
            <mxPoint x="275" y="200" as="targetPoint"/>
          </mxGeometry>
        </mxCell>
        <mxCell id="DCNkcFkhEtUqn7oyglFI-8" value="" style="endArrow=classic;html=1;exitX=0.5;exitY=1;exitDx=0;exitDy=0;entryX=0.5;entryY=0;entryDx=0;entryDy=0;" edge="1" parent="fTwIhWSCVyCY8DVJ5tsg-1" source="DCNkcFkhEtUqn7oyglFI-6" target="DCNkcFkhEtUqn7oyglFI-1">
          <mxGeometry width="50" height="50" relative="1" as="geometry">
            <mxPoint x="275" y="240" as="sourcePoint"/>
            <mxPoint x="275" y="280" as="targetPoint"/>
          </mxGeometry>
        </mxCell>
      </root>
    </mxGraphModel>
  </diagram>
  <diagram id="1u0zB1TjbeAO1P_luN0C" name="scn">
    <mxGraphModel dx="813" dy="498" grid="1" gridSize="10" guides="1" tooltips="1" connect="1" arrows="1" fold="1" page="1" pageScale="1" pageWidth="850" pageHeight="1100" math="0" shadow="0">
      <root>
        <mxCell id="-GBk70p57HuxokXI4Xae-0"/>
        <mxCell id="-GBk70p57HuxokXI4Xae-1" parent="-GBk70p57HuxokXI4Xae-0"/>
        <mxCell id="-GBk70p57HuxokXI4Xae-2" value="Pemasok" style="rounded=0;whiteSpace=wrap;html=1;" vertex="1" parent="-GBk70p57HuxokXI4Xae-1">
          <mxGeometry x="100" y="140" width="100" height="50" as="geometry"/>
        </mxCell>
        <mxCell id="-GBk70p57HuxokXI4Xae-5" value="Pabrik" style="rounded=0;whiteSpace=wrap;html=1;" vertex="1" parent="-GBk70p57HuxokXI4Xae-1">
          <mxGeometry x="240" y="140" width="100" height="50" as="geometry"/>
        </mxCell>
        <mxCell id="-GBk70p57HuxokXI4Xae-8" value="Gudang" style="rounded=0;whiteSpace=wrap;html=1;" vertex="1" parent="-GBk70p57HuxokXI4Xae-1">
          <mxGeometry x="375" y="140" width="100" height="50" as="geometry"/>
        </mxCell>
        <mxCell id="-GBk70p57HuxokXI4Xae-11" value="Retail" style="rounded=0;whiteSpace=wrap;html=1;" vertex="1" parent="-GBk70p57HuxokXI4Xae-1">
          <mxGeometry x="510" y="140" width="100" height="50" as="geometry"/>
        </mxCell>
        <mxCell id="-GBk70p57HuxokXI4Xae-12" value="" style="endArrow=classic;html=1;exitX=1;exitY=0.5;exitDx=0;exitDy=0;entryX=0;entryY=0.5;entryDx=0;entryDy=0;" edge="1" parent="-GBk70p57HuxokXI4Xae-1" source="-GBk70p57HuxokXI4Xae-2" target="-GBk70p57HuxokXI4Xae-5">
          <mxGeometry width="50" height="50" relative="1" as="geometry">
            <mxPoint x="100" y="260" as="sourcePoint"/>
            <mxPoint x="150" y="210" as="targetPoint"/>
          </mxGeometry>
        </mxCell>
        <mxCell id="-GBk70p57HuxokXI4Xae-13" value="" style="endArrow=classic;html=1;exitX=1;exitY=0.5;exitDx=0;exitDy=0;entryX=0;entryY=0.5;entryDx=0;entryDy=0;" edge="1" parent="-GBk70p57HuxokXI4Xae-1" source="-GBk70p57HuxokXI4Xae-5" target="-GBk70p57HuxokXI4Xae-8">
          <mxGeometry width="50" height="50" relative="1" as="geometry">
            <mxPoint x="210" y="175" as="sourcePoint"/>
            <mxPoint x="250" y="175" as="targetPoint"/>
          </mxGeometry>
        </mxCell>
        <mxCell id="-GBk70p57HuxokXI4Xae-14" value="" style="endArrow=classic;html=1;exitX=1;exitY=0.5;exitDx=0;exitDy=0;entryX=0;entryY=0.5;entryDx=0;entryDy=0;" edge="1" parent="-GBk70p57HuxokXI4Xae-1" source="-GBk70p57HuxokXI4Xae-8" target="-GBk70p57HuxokXI4Xae-11">
          <mxGeometry width="50" height="50" relative="1" as="geometry">
            <mxPoint x="350" y="175" as="sourcePoint"/>
            <mxPoint x="385" y="175" as="targetPoint"/>
          </mxGeometry>
        </mxCell>
      </root>
    </mxGraphModel>
  </diagram>
</mxfile>
